<?xml version="1.0" encoding="utf-8"?>
<!-- Svg Vector Icons : http://www.onlinewebfonts.com/icon -->
<!DOCTYPE svg PUBLIC "-//W3C//DTD SVG 1.1//EN" "http://www.w3.org/Graphics/SVG/1.1/DTD/svg11.dtd">
<svg version="1.1" xmlns="http://www.w3.org/2000/svg" xmlns:xlink="http://www.w3.org/1999/xlink" x="0px" y="0px" viewBox="0 0 1000 1000" enable-background="new 0 0 1000 1000" xml:space="preserve">
<metadata> Svg Vector Icons : http://www.onlinewebfonts.com/icon </metadata>
<g><path d="M500,77.5c57.1,0,112.4,11.2,164.4,33.2c50.3,21.3,95.5,51.8,134.3,90.6c38.8,38.8,69.3,84,90.6,134.3c22,52,33.2,107.4,33.2,164.4c0,57.1-11.2,112.4-33.2,164.4c-21.3,50.3-51.8,95.5-90.6,134.3c-38.8,38.8-84,69.3-134.3,90.6c-52,22-107.4,33.2-164.4,33.2c-57.1,0-112.4-11.2-164.4-33.2c-50.3-21.3-95.5-51.8-134.3-90.6c-38.8-38.8-69.3-84-90.6-134.3c-22-52-33.2-107.4-33.2-164.4c0-57.1,11.2-112.4,33.2-164.4c21.3-50.3,51.8-95.5,90.6-134.3s84-69.3,134.3-90.6C387.6,88.6,442.9,77.5,500,77.5 M500,10C229.4,10,10,229.4,10,500c0,270.6,219.4,490,490,490c270.6,0,490-219.4,490-490C990,229.4,770.6,10,500,10L500,10L500,10z"/><path d="M658.4,268c-6,0-12.1,2.3-16.7,6.9L500,416.6L358.2,274.9c-4.6-4.6-10.6-6.9-16.7-6.9c-6,0-12.1,2.3-16.7,6.9l-50,50c-9.2,9.2-9.2,24.1,0,33.4L416.6,500L274.9,641.8c-9.2,9.2-9.2,24.1,0,33.4l50,50c4.6,4.6,10.6,6.9,16.7,6.9c6,0,12.1-2.3,16.7-6.9L500,583.4l141.8,141.8c4.6,4.6,10.6,6.9,16.7,6.9c6,0,12.1-2.3,16.7-6.9l50-50c9.2-9.2,9.2-24.1,0-33.4L583.4,500l141.8-141.7c9.2-9.2,9.2-24.1,0-33.4l-50-50C670.5,270.3,664.5,268,658.4,268L658.4,268L658.4,268z"/></g>
</svg>