<?xml version="1.0" encoding="utf-8"?>
<!-- Svg Vector Icons : http://www.onlinewebfonts.com/icon -->
<!DOCTYPE svg PUBLIC "-//W3C//DTD SVG 1.1//EN" "http://www.w3.org/Graphics/SVG/1.1/DTD/svg11.dtd">
<svg version="1.1" xmlns="http://www.w3.org/2000/svg" xmlns:xlink="http://www.w3.org/1999/xlink" x="0px" y="0px" viewBox="0 0 1000 1000" enable-background="new 0 0 1000 1000" xml:space="preserve">
<metadata> Svg Vector Icons : http://www.onlinewebfonts.com/icon </metadata>
<g><path d="M500,10C229.4,10,10,229.4,10,500c0,270.6,219.4,490,490,490s490-219.4,490-490C990,229.4,770.6,10,500,10z M752,797.9c-15.4,12.9-38.3,11-51.3-4.2L506.5,564.3L312.4,793.7c-13,15.3-35.9,17.2-51.3,4.2c-15.3-12.9-17.2-35.9-4.3-51.2L458.9,508L256.9,269.3c-13-15.3-11.1-38.3,4.2-51.3c15.3-13,38.2-11,51.2,4.3l194.2,229.4l194.2-229.4c12.9-15.3,35.9-17.2,51.2-4.3c15.3,13,17.2,35.9,4.3,51.3L554.1,508l202.1,238.7C769.2,762,767.3,785,752,797.9z" /></g>
</svg>